<?xml version="1.0" encoding="utf-8"?>
<!-- Generator: Adobe Illustrator 18.0.0, SVG Export Plug-In . SVG Version: 6.00 Build 0)  -->
<!DOCTYPE svg PUBLIC "-//W3C//DTD SVG 1.1//EN" "http://www.w3.org/Graphics/SVG/1.1/DTD/svg11.dtd">
<svg version="1.1" id="Ebene_1" xmlns="http://www.w3.org/2000/svg" xmlns:xlink="http://www.w3.org/1999/xlink" x="0px" y="0px"
	 viewBox="0 0 64 64" enable-background="new 0 0 64 64" xml:space="preserve">
<path fill="#010202" d="M63.2,22.2c0.4,0,0.8-0.4,0.8-0.8c0-0.5-0.4-0.8-0.8-0.8H51V13h12.2c0.4,0,0.8-0.4,0.8-0.8s-0.4-0.8-0.8-0.8
	H51V0.8C51,0.4,50.6,0,50.2,0s-0.8,0.4-0.8,0.8v10.5H14.6V0.8c0-0.5-0.4-0.8-0.8-0.8S13,0.4,13,0.8v10.5H0.8c-0.4,0-0.8,0.4-0.8,0.8
	C0,12.6,0.4,13,0.8,13H13v7.6H0.8C0.4,20.6,0,21,0,21.4c0,0.5,0.4,0.8,0.8,0.8H13v25.4H0.8C0.4,47.6,0,48,0,48.4
	c0,0.5,0.4,0.8,0.8,0.8H13v13.9c0,0.5,0.4,0.8,0.8,0.8s0.8-0.4,0.8-0.8V49.2h34.7v13.9c0,0.5,0.4,0.8,0.8,0.8s0.8-0.4,0.8-0.8V49.2
	h12.2c0.4,0,0.8-0.4,0.8-0.8c0-0.5-0.4-0.8-0.8-0.8H51V22.2H63.2z M49.4,13v7.6H24.6l2.7-7.6H49.4z M14.6,13h11l-2.7,7.6h-8.3
	L14.6,13L14.6,13z M22.3,22.2l-7.7,21.6V22.2H22.3z M24.1,47.6l1.9-5.7h11.8l1.9,5.7H24.1z M49.4,47.6h-8l-2.3-6.8
	c-0.1-0.3-0.4-0.6-0.8-0.6h-13c-0.3,0-0.6,0.2-0.8,0.6l-2.3,6.8H15L24,22.2h6.7l-4,11.9c-0.1,0.3,0,0.5,0.1,0.7
	c0.1,0.2,0.4,0.3,0.6,0.3h8.6c0.3,0,0.5-0.1,0.6-0.3c0.1-0.2,0.2-0.5,0.1-0.7l-4-11.9h16.4V47.6z M31.9,24l3.2,9.6h-6.4L31.9,24z"/>
</svg>
